<svg width="24" height="24" viewBox="0 0 24 24" fill="none" xmlns="http://www.w3.org/2000/svg">
<path fill-rule="evenodd" clip-rule="evenodd" d="M12.25 9.24999C10.6 9.24999 9.24998 10.6 9.24998 12.25C9.24998 13.9 10.6 15.25 12.25 15.25C13.9 15.25 15.25 13.9 15.25 12.25C15.25 10.6 13.9 9.24999 12.25 9.24999V9.24999ZM18.925 11.5C18.55 8.35 16.075 5.875 13 5.575V4H11.5V5.575C8.35 5.875 5.875 8.35 5.575 11.5H4V13H5.575C5.95 16.15 8.425 18.625 11.5 18.925V20.5H13V18.925C16.15 18.55 18.625 16.075 18.925 13H20.5V11.5H18.925V11.5ZM12.25 17.5C9.32498 17.5 6.99998 15.175 6.99998 12.25C6.99998 9.32499 9.32498 6.99999 12.25 6.99999C15.175 6.99999 17.5 9.32499 17.5 12.25C17.5 15.175 15.175 17.5 12.25 17.5V17.5Z" fill="black"/>
</svg>
