<svg xmlns="http://www.w3.org/2000/svg" viewBox="0 0 171.02 46.87"><defs><style>.cls-1{fill:#fff;}</style></defs><title>Asset 1</title><g id="Layer_2" data-name="Layer 2"><g id="Layer_1-2" data-name="Layer 1"><path class="cls-1" d="M41.47,9.89a1.63,1.63,0,0,0-1.36-.75,1.08,1.08,0,0,0-1.1,1c0,1.53,3.58.89,3.58,3.92a2.85,2.85,0,0,1-3,3.1,3.2,3.2,0,0,1-2.78-1.76L38,14.3a1.85,1.85,0,0,0,1.63,1.32,1.21,1.21,0,0,0,1.16-1.31c0-.93-.86-1.2-1.57-1.47-1.16-.48-2-1.07-2-2.47a2.63,2.63,0,0,1,2.64-2.71,3.69,3.69,0,0,1,2.47,1Z"/><path class="cls-1" d="M45.88,16.94H44.12v-9h1.76Z"/><path class="cls-1" d="M49.53,9.43v2h2.56V13H49.53v4H47.77v-9h4.48V9.43Z"/><path class="cls-1" d="M55.05,15l-.74,1.91H52.45L56,7.66h1.37l3.43,9.28H58.89L58.19,15Zm1.52-4.72h0l-1,3.28H57.7Z"/><path class="cls-1" d="M68,16.94H65.9l-2.2-3.65h0v3.65H61.92v-9H64.3c1.79,0,3,.79,3,2.72a2.4,2.4,0,0,1-1.85,2.51Zm-4.35-4.88h.23c1,0,1.65-.29,1.65-1.39s-.7-1.34-1.64-1.34h-.24Z"/><path class="cls-1" d="M41.57,22.66a1.66,1.66,0,0,0-1.55-1,1.44,1.44,0,0,0-1.5,1.41c0,.78.8,1.14,1.41,1.41l.6.27c1.18.51,2.17,1.1,2.17,2.54a2.85,2.85,0,0,1-5.66.46l1-.28a1.88,1.88,0,0,0,1.82,1.68,1.81,1.81,0,0,0,1.85-1.76c0-1.06-.82-1.42-1.66-1.8l-.55-.24c-1.06-.48-2-1-2-2.32A2.37,2.37,0,0,1,40,20.74a2.61,2.61,0,0,1,2.34,1.4Z"/><path class="cls-1" d="M45.54,27.37l-1.1,2.57h-1.1l4.18-9.48,4.06,9.48H50.47L49.4,27.37Zm2-4.56-1.55,3.63H49Z"/><path class="cls-1" d="M53.74,20.38,57,28l3.3-7.59,1.83,9.56h-1L60,23.82h0L57,30.31l-2.9-6.49h0l-1.16,6.12h-1Z"/><path class="cls-1" d="M67.42,22.66a1.67,1.67,0,0,0-1.56-1,1.44,1.44,0,0,0-1.5,1.41c0,.78.81,1.14,1.42,1.41l.6.27c1.18.51,2.17,1.1,2.17,2.54a2.85,2.85,0,0,1-5.66.46l1-.28a1.87,1.87,0,0,0,1.81,1.68,1.81,1.81,0,0,0,1.86-1.76c0-1.06-.82-1.42-1.66-1.8l-.56-.24c-1-.48-2-1-2-2.32a2.37,2.37,0,0,1,2.53-2.3,2.62,2.62,0,0,1,2.34,1.4Z"/><path class="cls-1" d="M79,25.43a4.72,4.72,0,1,1-4.71-4.69A4.68,4.68,0,0,1,79,25.43Zm-8.42,0a3.71,3.71,0,1,0,3.71-3.75A3.74,3.74,0,0,0,70.58,25.42Z"/><path class="cls-1" d="M80.43,20.51l7,7.39v-7h1v9.45l-7-7.38v7h-1Z"/><path class="cls-1" d="M95.11,29.94h-1v-9h1Z"/><path class="cls-1" d="M97,20.51l7,7.39v-7h1v9.45L98,23v7H97Z"/><path class="cls-1" d="M111.06,22.66a1.69,1.69,0,0,0-1.56-1,1.44,1.44,0,0,0-1.5,1.41c0,.78.8,1.14,1.41,1.41l.6.27c1.18.51,2.17,1.1,2.17,2.54a2.85,2.85,0,0,1-5.66.46l1-.28a1.88,1.88,0,0,0,1.82,1.68,1.81,1.81,0,0,0,1.85-1.76c0-1.06-.82-1.42-1.66-1.8l-.55-.24c-1.06-.48-2-1-2-2.32a2.37,2.37,0,0,1,2.53-2.3,2.61,2.61,0,0,1,2.34,1.4Z"/><path class="cls-1" d="M116.06,29.94h-1V21.83h-2.18V20.9h5.4v.93h-2.21Z"/><path class="cls-1" d="M120.33,29.94h-1v-9h1Z"/><path class="cls-1" d="M124.57,29.94h-1V21.83h-2.18V20.9h5.39v.93h-2.2Z"/><path class="cls-1" d="M128.79,26.28a3.37,3.37,0,0,0,.4,2,2.32,2.32,0,0,0,1.82.86,2.41,2.41,0,0,0,1.78-.8,3.13,3.13,0,0,0,.44-2.08V20.9h1v5.66a3.2,3.2,0,0,1-.79,2.5,3.42,3.42,0,0,1-4.78.11,3.18,3.18,0,0,1-.89-2.61V20.9h1Z"/><path class="cls-1" d="M138.43,29.94h-1V21.83h-2.18V20.9h5.39v.93h-2.2Z"/><path class="cls-1" d="M141.67,20.9h4.69v.93h-3.68v2.69h3.57v.93h-3.57V29h3.68v.94h-4.69Z"/><path class="cls-1" d="M38.48,34.83v2.69h3v.93h-3v4.49h-1v-9h4.12v.93Z"/><path class="cls-1" d="M52.18,38.43a4.72,4.72,0,1,1-4.71-4.69A4.68,4.68,0,0,1,52.18,38.43Zm-8.42,0a3.71,3.71,0,1,0,3.71-3.75A3.74,3.74,0,0,0,43.76,38.42Z"/><path class="cls-1" d="M54.56,42.94h-1v-9h1.31c1.72,0,3.31.45,3.31,2.49a2.36,2.36,0,0,1-2.27,2.49l2.88,4.06H57.55l-2.74-4h-.25Zm0-4.86h.31c1.14,0,2.29-.21,2.29-1.62s-1.09-1.63-2.3-1.63h-.3Z"/><path class="cls-1" d="M65.11,40.37,64,42.94H62.91l4.18-9.48,4.06,9.48H70L69,40.37Zm2-4.56-1.54,3.63h3Z"/><path class="cls-1" d="M80.55,38.39a4.3,4.3,0,0,1-.94,3.19,4.44,4.44,0,0,1-3.34,1.51,4.68,4.68,0,1,1,3.88-7.4l-.73.69a3.67,3.67,0,0,0-3.11-1.71,3.75,3.75,0,0,0-3.69,3.78A3.68,3.68,0,0,0,73.68,41a3.8,3.8,0,0,0,2.56,1.15,3.11,3.11,0,0,0,3.23-2.83H76.78v-.94Z"/><path class="cls-1" d="M82,33.9h4.69v.93H83v2.69h3.57v.93H83V42h3.68v.94H82Z"/><path class="cls-1" d="M89.42,42.94h-1v-9h1Z"/><path class="cls-1" d="M91.32,33.51l7.05,7.39v-7h1v9.45L92.32,36v7h-1Z"/><path class="cls-1" d="M109.67,38.39a4.29,4.29,0,0,1-.93,3.19,4.48,4.48,0,0,1-3.35,1.51,4.68,4.68,0,1,1,3.89-7.4l-.73.69a3.69,3.69,0,0,0-3.11-1.71,3.75,3.75,0,0,0-3.69,3.78,3.67,3.67,0,0,0,1,2.56,3.8,3.8,0,0,0,2.57,1.15,3.1,3.1,0,0,0,3.22-2.83h-2.68v-.94Z"/><path class="cls-1" d="M115.81,42.94h-1v-9h1.31c1.71,0,3.31.45,3.31,2.49a2.36,2.36,0,0,1-2.27,2.49L120,42.94h-1.24l-2.73-4h-.25Zm0-4.86h.31c1.14,0,2.29-.21,2.29-1.62s-1.09-1.63-2.3-1.63h-.3Z"/><path class="cls-1" d="M121.3,33.9H126v.93h-3.68v2.69h3.58v.93h-3.58V42H126v.94H121.3Z"/><path class="cls-1" d="M131.81,35.66a1.67,1.67,0,0,0-1.55-1,1.44,1.44,0,0,0-1.5,1.41c0,.78.8,1.14,1.41,1.41l.6.27c1.18.51,2.17,1.1,2.17,2.54a2.85,2.85,0,0,1-5.66.46l1-.28a1.88,1.88,0,0,0,1.82,1.68,1.81,1.81,0,0,0,1.85-1.76c0-1.06-.82-1.42-1.66-1.8l-.55-.24c-1.06-.48-2-1-2-2.32a2.37,2.37,0,0,1,2.53-2.3,2.61,2.61,0,0,1,2.34,1.4Z"/><path class="cls-1" d="M134.42,33.9h4.69v.93h-3.68v2.69H139v.93h-3.57V42h3.68v.94h-4.69Z"/><path class="cls-1" d="M142.18,40.37l-1.09,2.57H140l4.17-9.48,4.07,9.48h-1.12l-1.06-2.57Zm2-4.56-1.55,3.63h3.06Z"/><path class="cls-1" d="M150.22,42.94h-1v-9h1.3c1.72,0,3.31.45,3.31,2.49a2.35,2.35,0,0,1-2.26,2.49l2.88,4.06h-1.24l-2.73-4h-.26Zm0-4.86h.32c1.14,0,2.29-.21,2.29-1.62s-1.1-1.63-2.31-1.63h-.3Z"/><path class="cls-1" d="M162.62,35.88a3.87,3.87,0,0,0-2.76-1.21,3.75,3.75,0,0,0,0,7.49,4,4,0,0,0,2.74-1.2v1.25a4.69,4.69,0,0,1-7.42-3.76,4.73,4.73,0,0,1,4.72-4.71,4.38,4.38,0,0,1,2.7.89Z"/><path class="cls-1" d="M170,37.57V33.9h1v9h-1V38.5h-4.63v4.44h-1v-9h1v3.67Z"/><path class="cls-1" d="M9.35,4.43a4.6,4.6,0,0,0,0,7.1S13.66,8.73,9.35,4.43Z"/><path class="cls-1" d="M18.91,14.67a4.59,4.59,0,0,0,5,5S25,14.67,18.91,14.67Z"/><path class="cls-1" d="M8.72,19.26a2.9,2.9,0,0,0,0,4.47S11.43,22,8.72,19.26Z"/><path class="cls-1" d="M14.1,31.6a2.89,2.89,0,0,0,0,4.47S16.81,34.31,14.1,31.6Z"/><path class="cls-1" d="M13.39,28.94a2.89,2.89,0,0,0-3.16,3.16S13.39,32.77,13.39,28.94Z"/><path class="cls-1" d="M26.1,4.77a2.89,2.89,0,0,0-3.16,3.16S26.1,8.61,26.1,4.77Z"/><path class="cls-1" d="M13.41,28.16A2.89,2.89,0,0,0,10.25,25S9.58,28.16,13.41,28.16Z"/><path class="cls-1" d="M14.16,16A2.9,2.9,0,0,0,11,12.84S10.32,16,14.16,16Z"/><path class="cls-1" d="M25.47,25.05a2.89,2.89,0,0,0-3.16-3.16S21.63,25.05,25.47,25.05Z"/><path class="cls-1" d="M18.51,7.77a2.89,2.89,0,0,0-3.16-3.16S14.67,7.77,18.51,7.77Z"/><path class="cls-1" d="M20.61,0a4.6,4.6,0,0,0,0,7.1S24.92,4.3,20.61,0Z"/><path class="cls-1" d="M7.86,12.74a4.59,4.59,0,0,0-7.09,0S3.56,17.05,7.86,12.74Z"/><path class="cls-1" d="M7.1,24.9a4.6,4.6,0,0,0-7.1,0S2.79,29.2,7.1,24.9Z"/><path class="cls-1" d="M6.66,28.29a4.59,4.59,0,0,0-5,5S6.66,34.38,6.66,28.29Z"/><path class="cls-1" d="M19.93,9a4.59,4.59,0,0,0-5,5S19.93,15.07,19.93,9Z"/><path class="cls-1" d="M21,31.29a4.6,4.6,0,0,0-5,5S21,37.38,21,31.29Z"/><path class="cls-1" d="M30.55,42c0-1.08-.07-2.18-.12-3.24L30.34,37c-.17-3.16-.5-6.51-1-9.94a64.18,64.18,0,0,0-2.29-9.76,30.26,30.26,0,0,0-2-4.63,10.45,10.45,0,0,0-.64-1.09l-.13-.19a7,7,0,0,0-.6-.86L23.3,10l-.44-.47a5.91,5.91,0,0,0-1-.87.35.35,0,0,0-.45.07.34.34,0,0,0,0,.48l.07.06a5,5,0,0,1,.77.8l.35.46.32.51a5.36,5.36,0,0,1,.48.84l.11.2A10.16,10.16,0,0,1,24,13.14a28.74,28.74,0,0,1,1.47,4.57,60.28,60.28,0,0,1,1.32,9.58c.14,3,.17,6,.08,8.85a.13.13,0,0,1-.09.12l-.1,0-.14,0-.77.19-.26.06a.12.12,0,0,1-.1,0,.19.19,0,0,1-.05-.09,18.75,18.75,0,0,0-.5-2.43,16.53,16.53,0,0,0-1.53-3.72,12.54,12.54,0,0,0-5.86-5.38,12.48,12.48,0,0,1-5.43-4.78,17.81,17.81,0,0,1-2.57-7,.2.2,0,0,0-.21-.2h0a.21.21,0,0,0-.19.22,18.52,18.52,0,0,0,2.27,7.4A13.66,13.66,0,0,0,17,26.05a11.08,11.08,0,0,1,5,5,14.86,14.86,0,0,1,1.18,3.4,17.63,17.63,0,0,1,.35,2.42.12.12,0,0,1-.1.13c-.78.15-1.49.26-2.17.37l-1.88.26c-.59.07-1.21.15-1.76.19a9.43,9.43,0,0,1-3.4-.37,6.56,6.56,0,0,1-2.84-1.82,9.45,9.45,0,0,1-1.78-3,18.33,18.33,0,0,1-.93-7.23.22.22,0,0,0-.18-.24.21.21,0,0,0-.24.18,18.93,18.93,0,0,0,.45,7.59,10,10,0,0,0,1.76,3.53,8,8,0,0,0,3.24,2.42,10.76,10.76,0,0,0,4,.72c.66,0,1.26,0,1.85-.06l2-.13c1-.07,3.72-.39,3.8-.4.46-.06.94-.14,1.43-.23a.11.11,0,0,1,.11,0,.15.15,0,0,1,0,.1c0,.94-.09,1.94-.17,3-.13,1.56-.36,4.37-.41,5H30.6C30.59,46.09,30.55,42,30.55,42Z"/></g></g></svg>